<mxfile host="app.diagrams.net" modified="2023-11-22T11:13:21.705Z" agent="Mozilla/5.0 (Windows NT 10.0; Win64; x64) AppleWebKit/537.36 (KHTML, like Gecko) Chrome/119.0.0.0 Safari/537.36 Edg/119.0.0.0" etag="-HWlkbhKf_ikOZkxDE9T" version="22.1.3" type="github">
  <diagram name="Page-1" id="a4w3ySM6WO1sGtrOkUMh">
    <mxGraphModel dx="2876" dy="2245" grid="1" gridSize="10" guides="1" tooltips="1" connect="1" arrows="1" fold="1" page="1" pageScale="1" pageWidth="850" pageHeight="1100" math="0" shadow="0">
      <root>
        <mxCell id="0" />
        <mxCell id="1" parent="0" />
        <mxCell id="tH8DulrmsZ1cjP9Ou1ks-20" style="edgeStyle=orthogonalEdgeStyle;rounded=0;orthogonalLoop=1;jettySize=auto;html=1;entryX=0;entryY=0.5;entryDx=0;entryDy=0;" edge="1" parent="1" source="tH8DulrmsZ1cjP9Ou1ks-1" target="tH8DulrmsZ1cjP9Ou1ks-11">
          <mxGeometry relative="1" as="geometry" />
        </mxCell>
        <mxCell id="tH8DulrmsZ1cjP9Ou1ks-21" style="edgeStyle=orthogonalEdgeStyle;rounded=0;orthogonalLoop=1;jettySize=auto;html=1;" edge="1" parent="1" source="tH8DulrmsZ1cjP9Ou1ks-1" target="tH8DulrmsZ1cjP9Ou1ks-7">
          <mxGeometry relative="1" as="geometry" />
        </mxCell>
        <mxCell id="tH8DulrmsZ1cjP9Ou1ks-22" style="edgeStyle=orthogonalEdgeStyle;rounded=0;orthogonalLoop=1;jettySize=auto;html=1;entryX=0;entryY=0.5;entryDx=0;entryDy=0;" edge="1" parent="1" source="tH8DulrmsZ1cjP9Ou1ks-1" target="tH8DulrmsZ1cjP9Ou1ks-9">
          <mxGeometry relative="1" as="geometry" />
        </mxCell>
        <mxCell id="tH8DulrmsZ1cjP9Ou1ks-1" value="NGINX" style="rounded=1;whiteSpace=wrap;html=1;verticalAlign=top;" vertex="1" parent="1">
          <mxGeometry x="126" y="77" width="120" height="60" as="geometry" />
        </mxCell>
        <mxCell id="tH8DulrmsZ1cjP9Ou1ks-6" value="" style="shape=image;html=1;verticalAlign=top;verticalLabelPosition=bottom;labelBackgroundColor=#ffffff;imageAspect=0;aspect=fixed;image=https://cdn4.iconfinder.com/data/icons/logos-brands-5/24/nginx-128.png" vertex="1" parent="1">
          <mxGeometry x="171" y="99" width="30" height="30" as="geometry" />
        </mxCell>
        <mxCell id="tH8DulrmsZ1cjP9Ou1ks-7" value="Landing page" style="rounded=1;whiteSpace=wrap;html=1;verticalAlign=top;" vertex="1" parent="1">
          <mxGeometry x="380" y="77" width="120" height="60" as="geometry" />
        </mxCell>
        <mxCell id="tH8DulrmsZ1cjP9Ou1ks-8" value="" style="shape=image;html=1;verticalAlign=top;verticalLabelPosition=bottom;labelBackgroundColor=#ffffff;imageAspect=0;aspect=fixed;image=https://cdn0.iconfinder.com/data/icons/long-shadow-web-icons/512/nodejs-128.png" vertex="1" parent="1">
          <mxGeometry x="425" y="101" width="30" height="30" as="geometry" />
        </mxCell>
        <mxCell id="tH8DulrmsZ1cjP9Ou1ks-9" value="Manage Business" style="rounded=1;whiteSpace=wrap;html=1;verticalAlign=top;" vertex="1" parent="1">
          <mxGeometry x="380" y="190" width="120" height="60" as="geometry" />
        </mxCell>
        <mxCell id="tH8DulrmsZ1cjP9Ou1ks-10" value="" style="shape=image;html=1;verticalAlign=top;verticalLabelPosition=bottom;labelBackgroundColor=#ffffff;imageAspect=0;aspect=fixed;image=https://cdn0.iconfinder.com/data/icons/long-shadow-web-icons/512/nodejs-128.png" vertex="1" parent="1">
          <mxGeometry x="425" y="214" width="30" height="30" as="geometry" />
        </mxCell>
        <mxCell id="tH8DulrmsZ1cjP9Ou1ks-11" value="Authentication" style="rounded=1;whiteSpace=wrap;html=1;verticalAlign=top;" vertex="1" parent="1">
          <mxGeometry x="380" y="-30" width="120" height="60" as="geometry" />
        </mxCell>
        <mxCell id="tH8DulrmsZ1cjP9Ou1ks-12" value="" style="shape=image;html=1;verticalAlign=top;verticalLabelPosition=bottom;labelBackgroundColor=#ffffff;imageAspect=0;aspect=fixed;image=https://cdn0.iconfinder.com/data/icons/long-shadow-web-icons/512/nodejs-128.png" vertex="1" parent="1">
          <mxGeometry x="425" y="-6" width="30" height="30" as="geometry" />
        </mxCell>
        <mxCell id="tH8DulrmsZ1cjP9Ou1ks-17" style="edgeStyle=orthogonalEdgeStyle;rounded=0;orthogonalLoop=1;jettySize=auto;html=1;" edge="1" parent="1" source="tH8DulrmsZ1cjP9Ou1ks-14" target="tH8DulrmsZ1cjP9Ou1ks-16">
          <mxGeometry relative="1" as="geometry" />
        </mxCell>
        <mxCell id="tH8DulrmsZ1cjP9Ou1ks-14" value="" style="shape=image;html=1;verticalAlign=top;verticalLabelPosition=bottom;labelBackgroundColor=#ffffff;imageAspect=0;aspect=fixed;image=https://cdn1.iconfinder.com/data/icons/user-pictures/100/male3-128.png" vertex="1" parent="1">
          <mxGeometry x="-100" y="82" width="50" height="50" as="geometry" />
        </mxCell>
        <mxCell id="tH8DulrmsZ1cjP9Ou1ks-19" style="edgeStyle=orthogonalEdgeStyle;rounded=0;orthogonalLoop=1;jettySize=auto;html=1;entryX=0;entryY=0.5;entryDx=0;entryDy=0;" edge="1" parent="1" source="tH8DulrmsZ1cjP9Ou1ks-16" target="tH8DulrmsZ1cjP9Ou1ks-1">
          <mxGeometry relative="1" as="geometry" />
        </mxCell>
        <mxCell id="tH8DulrmsZ1cjP9Ou1ks-16" value="" style="image;aspect=fixed;perimeter=ellipsePerimeter;html=1;align=center;shadow=0;dashed=0;fontColor=#4277BB;labelBackgroundColor=default;fontSize=12;spacingTop=3;image=img/lib/ibm/users/browser.svg;" vertex="1" parent="1">
          <mxGeometry x="25" y="87" width="40" height="40" as="geometry" />
        </mxCell>
      </root>
    </mxGraphModel>
  </diagram>
</mxfile>
